<svg width="24" height="24" viewBox="0 0 24 24" fill="none" xmlns="http://www.w3.org/2000/svg">
<path d="M6 22H5C3.89543 22 3 21.1046 3 20V8M3 8H7C8.10457 8 9 7.10457 9 6V2M3 8L9 2M9 2H17C18.1046 2 19 2.89543 19 4V7M16.0947 13.2238L11.4296 17.5973C11.1491 17.8602 10.9504 18.1983 10.8572 18.5713L10 22L13.4626 21.1344C13.8142 21.0464 14.1354 20.8646 14.3917 20.6083L19 16M16.0947 13.2238L17.7274 11.6931C18.4541 11.0117 19.5748 10.979 20.3401 11.6168V11.6168C21.2315 12.3596 21.2926 13.7074 20.4722 14.5278L19 16M16.0947 13.2238L19 16" stroke="#171717" stroke-linecap="round"/>
</svg>