<svg width="24" height="24" viewBox="0 0 24 24" fill="none" xmlns="http://www.w3.org/2000/svg">
<path d="M19.7942 14.5C20.5841 13.1318 21 11.5798 21 10C21 8.42017 20.5841 6.86817 19.7942 5.5C19.0043 4.13183 17.8682 2.99569 16.5 2.20577C15.1318 1.41586 13.5798 1 12 1C10.4202 1 8.86817 1.41586 7.5 2.20577C6.13183 2.99569 4.99569 4.13183 4.20577 5.5C3.41586 6.86817 3 8.42017 3 10C3 11.5798 3.41586 13.1318 4.20577 14.5M12 16C11.1052 16 9.41342 15.166 8.12705 14.5344C7.55246 14.2523 6.88802 14.5972 6.77006 15.2264L5.76012 20.6127C5.63307 21.2903 6.21365 21.8902 6.89504 21.7854L11.8479 21.0234C11.9487 21.0079 12.0513 21.0079 12.1521 21.0234L17.105 21.7854C17.7863 21.8902 18.3669 21.2903 18.2399 20.6127L17.259 15.3811C17.1322 14.7053 16.3753 14.3529 15.7609 14.6618C14.4898 15.3007 12.869 16 12 16ZM15.8258 6.82576L15.7558 6.75582C15.3468 6.34678 14.6771 6.36908 14.2961 6.80442L12.1301 9.27989C11.7777 9.68263 11.1707 9.73656 10.7528 9.40226L9.69891 8.55913C9.30102 8.24082 8.72741 8.27259 8.36711 8.63289L8.25582 8.74418C7.84678 9.15322 7.86908 9.82294 8.30442 10.2039L10.7616 12.3539C11.1716 12.7127 11.7935 12.6772 12.16 12.274L15.8586 8.20554C16.2177 7.81057 16.2032 7.20321 15.8258 6.82576Z" stroke="#fff"/>
</svg>
