<svg width="24" height="24" viewBox="0 0 24 24" fill="none" xmlns="http://www.w3.org/2000/svg">
<path d="M5 9.45L10.91 13.2915C11.5728 13.7223 12.4272 13.7223 13.09 13.2915L19 9.45M5 9.45V9.45C3.70824 8.61035 2 9.53739 2 11.0781V20C2 21.1046 2.89543 22 4 22H20C21.1046 22 22 21.1046 22 20V11.0781C22 9.53739 20.2918 8.61035 19 9.45V9.45M5 9.45V4C5 2.89543 5.89543 2 7 2H15M19 9.45V6M19 6V5.32843C19 4.79799 18.7893 4.28929 18.4142 3.91421L17.0858 2.58579C16.7107 2.21071 16.202 2 15.6716 2H15M19 6H17C15.8954 6 15 5.10457 15 4V2" stroke="#fff"/>
</svg>
