<svg width="24" height="24" viewBox="0 0 24 24" fill="none" xmlns="http://www.w3.org/2000/svg">
<path fill-rule="evenodd" clip-rule="evenodd" d="M19.7376 3.04995C19.457 1.65002 17.5665 1.65002 17.2859 3.04995C17.1316 3.81982 16.38 4.27848 15.6721 4.03482C14.3847 3.59174 13.4395 5.32224 14.4462 6.27909C14.9998 6.80529 14.9998 7.72262 14.4462 8.24882C13.4395 9.20568 14.3847 10.9362 15.6721 10.4931C16.38 10.2494 17.1316 10.7081 17.2859 11.478C17.5665 12.8779 19.457 12.8779 19.7376 11.478C19.892 10.7081 20.6435 10.2494 21.3515 10.4931C22.6388 10.9362 23.584 9.20568 22.5773 8.24882C22.0237 7.72262 22.0237 6.80529 22.5773 6.27909C23.584 5.32224 22.6388 3.59174 21.3515 4.03482C20.6435 4.27848 19.892 3.81982 19.7376 3.04995ZM18.5118 10.2767C20.0859 10.2767 21.362 8.92783 21.362 7.26396C21.362 5.60008 20.0859 4.25125 18.5118 4.25125C16.9376 4.25125 15.6615 5.60008 15.6615 7.26396C15.6615 8.92783 16.9376 10.2767 18.5118 10.2767Z" fill="black"/>
<path d="M1 6.20822V6.20822C1 5.62678 1.47135 5.15543 2.05279 5.15543H11.9562M1 6.20822V20C1 21.1046 1.89543 22 3 22H18.9203C20.0249 22 20.9203 21.1046 20.9203 20V14.6305M1 6.20822L9.78003 13.6326C10.4751 14.2204 11.4794 14.2646 12.2235 13.7403L13.9482 12.525M17.2859 3.04995C17.5665 1.65002 19.457 1.65002 19.7376 3.04995C19.892 3.81982 20.6435 4.27848 21.3515 4.03482C22.6388 3.59173 23.584 5.32224 22.5773 6.27909C22.0237 6.80529 22.0237 7.72262 22.5773 8.24882C23.584 9.20568 22.6388 10.9362 21.3515 10.4931C20.6435 10.2494 19.892 10.7081 19.7376 11.478C19.457 12.8779 17.5665 12.8779 17.2859 11.478C17.1316 10.7081 16.38 10.2494 15.6721 10.4931C14.3847 10.9362 13.4395 9.20568 14.4462 8.24882C14.9998 7.72262 14.9998 6.80529 14.4462 6.27909C13.4395 5.32224 14.3847 3.59174 15.6721 4.03482C16.38 4.27848 17.1316 3.81982 17.2859 3.04995ZM21.362 7.26396C21.362 8.92783 20.0859 10.2767 18.5118 10.2767C16.9376 10.2767 15.6615 8.92783 15.6615 7.26396C15.6615 5.60008 16.9376 4.25125 18.5118 4.25125C20.0859 4.25125 21.362 5.60008 21.362 7.26396Z" stroke="black"/>
</svg>
