<svg width="24" height="24" viewBox="0 0 24 24" fill="none" xmlns="http://www.w3.org/2000/svg">
<path d="M4.85383 4.00008C3.02655 6.1218 2 8.99947 2 12C2 15.0006 3.02655 17.8783 4.85383 20M18.1462 4C19.9734 6.12172 21 8.99939 21 12C21 15.0005 19.9734 17.8782 18.1462 19.9999M7.65364 7.47454C6.52916 8.67476 5.89744 10.3026 5.89744 12C5.89744 13.6974 6.52916 15.3252 7.65364 16.5254M15.8335 7.4745C16.958 8.67472 17.5897 10.3026 17.5897 11.9999C17.5897 13.6973 16.958 15.3252 15.8335 16.5254M10.7692 14.1823C9.69298 14.1823 9.30769 13.1692 9.30769 11.9196C9.30769 10.6699 9.69298 9.65683 10.7692 9.65683M12.7179 14.1823C13.7942 14.1823 14.1795 13.1692 14.1795 11.9196C14.1795 10.6699 13.7942 9.65683 12.7179 9.65683" stroke="white" stroke-linecap="round"/>
</svg>
