<svg width="24" height="24" viewBox="0 0 24 24" fill="none" xmlns="http://www.w3.org/2000/svg">
<path d="M12 22C12 20.9444 12.2105 18.58 13.0526 17.5667C13.8948 16.5533 16.5613 13.3444 17.7895 11.8667M12 22C12 20.9444 11.7895 18.58 10.9474 17.5667L6.21053 11.8667M12 22V6.8M17.7895 11.8667V14.4M17.7895 11.8667H15.6842M6.21053 11.8667V14.4M6.21053 11.8667H8.31579M12 6.8L13.5789 8.7M12 6.8L10.4211 8.7M14.6316 19.4667H20C21.1046 19.4667 22 18.5712 22 17.4667V5C22 3.89543 21.1046 3 20 3H4C2.89543 3 2 3.89543 2 5V17.4667C2 18.5712 2.89543 19.4667 4 19.4667H9.36842" stroke="#fff" stroke-linecap="round" stroke-linejoin="round"/>
</svg>
