<svg width="26" height="18" viewBox="0 0 26 18" fill="none" xmlns="http://www.w3.org/2000/svg">
<path d="M26 15.5C26 16.163 25.6956 16.7989 25.1539 17.2678C24.6121 17.7366 23.8773 18 23.1111 18H2.88889C2.12271 18 1.38791 17.7366 0.846136 17.2678C0.304364 16.7989 0 16.163 0 15.5V13H26V15.5Z" fill="#CE2028"/>
<path d="M0 5H26V13H0V5Z" fill="#22408C"/>
<path d="M23.1111 0H2.88889C2.12271 0 1.38791 0.263392 0.846136 0.732233C0.304364 1.20107 0 1.83696 0 2.5L0 5H26V2.5C26 1.83696 25.6956 1.20107 25.1539 0.732233C24.6121 0.263392 23.8773 0 23.1111 0Z" fill="#EEEEEE"/>
</svg>
